{"title":"TonightsGirlfriend.12.03.16.Nicole.Aniston.XXX.1080p.MP4-KTR","uid":7177578,"size":1750777978,"categoryP":"porn","categoryS":"hd___movies","magnet":"?xt=urn:btih:823a68e8cca373f3e268cd7f0d421916cc16f7b0&amp;dn=TonightsGirlfriend.12.03.16.Nicole.Aniston.XXX.1080p.MP4-KTR&amp;tr=udp%3A%2F%2Ftracker.openbittorrent.com%3A80&amp;tr=udp%3A%2F%2Fopen.demonii.com%3A1337&amp;tr=udp%3A%2F%2Ftracker.coppersurfer.tk%3A6969&amp;tr=udp%3A%2F%2Fexodus.desync.com%3A6969","seeders":0,"leechers":1,"uploader":"Francisco1206","files":-1,"time":1334161552,"description":"Tonight is for me and nobody else. Nicole Aniston knows that, too. I've told her about my stressful job, all the arguing. Tonight I'm going to the boss; she's going to do whatever I say because I've paid for her services. If I want her to suck my cock with all of her clothes on, she's going to do it. This kind of night has been a long time coming for me. And not it has arrived.\n\nGeneral\nFormat                                   : MPEG-4\nFormat profile                           : Base Media / Version 2\nCodec ID                                 : mp42\nFile size                                : 1.63 GiB\nDuration                                 : 1h 2mn\nOverall bit rate mode                    : Variable\nOverall bit rate                         : 3 752 Kbps\n\nVideo\nID                                       : 1\nFormat                                   : AVC\nFormat/Info                              : Advanced Video Codec\nFormat profile                           : &lt;a class=&quot;__cf_email__&quot; href=&quot;/cdn-cgi/l/email-protection&quot; data-cfemail=&quot;b7fad6ded9f7fb839985&quot;&gt;[email&amp;#160;protected]&lt;/a&gt;&lt;script cf-hash='f9e31' type=&quot;text/javascript&quot;&gt;\n/* &lt;![CDATA[ */!function(){try{var t=&quot;currentScript&quot;in document?document.currentScript:function(){for(var t=document.getElementsByTagName(&quot;script&quot;),e=t.length;e--;)if(t[e].getAttribute(&quot;cf-hash&quot;))return t[e]}();if(t&amp;&amp;t.previousSibling){var e,r,n,i,c=t.previousSibling,a=c.getAttribute(&quot;data-cfemail&quot;);if(a){for(e=&quot;&quot;,r=parseInt(a.substr(0,2),16),n=2;a.length-n;n+=2)i=parseInt(a.substr(n,2),16)^r,e+=String.fromCharCode(i);e=document.createTextNode(e),c.parentNode.replaceChild(e,c)}}}catch(u){}}();/* ]]&gt; */&lt;/script&gt;\nFormat settings, CABAC                   : Yes\nFormat settings, ReFrames                : 3 frames\nFormat settings, GOP                     : M=4, N=10\nCodec ID                                 : avc1\nCodec ID/Info                            : Advanced Video Coding\nDuration                                 : 1h 2mn\nBit rate mode                            : Constant\nBit rate                                 : 3 600 Kbps\nWidth                                    : 1 920 pixels\nHeight                                   : 1 080 pixels\nDisplay aspect ratio                     : 16:9\nFrame rate mode                          : Constant\nFrame rate                               : 23.976 fps\nStandard                                 : NTSC\nColor space                              : YUV\nChroma subsampling                       : 4:2:0\nBit depth                                : 8 bits\nScan type                                : Progressive\nBits/(Pixel*Frame)                       : 0.072\nStream size                              : 1.56 GiB (96%)\nLanguage                                 : English\n\nAudio\nID                                       : 2\nFormat                                   : AAC\nFormat/Info                              : Advanced Audio Codec\nFormat profile                           : LC\nCodec ID                                 : 40\nDuration                                 : 1h 2mn\nSource duration                          : 1h 2mn\nBit rate mode                            : Variable\nBit rate                                 : 157 Kbps\nMaximum bit rate                         : 251 Kbps\nChannel(s)                               : 2 channels\nChannel positions                        : Front: L R\nSampling rate                            : 48.0 KHz\nCompression mode                         : Lossy\nStream size                              : 70.0 MiB (4%)\nSource stream size                       : 70.0 MiB\nLanguage                                 : English","torrent":{"xt":"urn:btih:823a68e8cca373f3e268cd7f0d421916cc16f7b0","amp;dn":"TonightsGirlfriend.12.03.16.Nicole.Aniston.XXX.1080p.MP4-KTR","amp;tr":["udp%3A%2F%2Ftracker.openbittorrent.com%3A80","udp%3A%2F%2Fopen.demonii.com%3A1337","udp%3A%2F%2Ftracker.coppersurfer.tk%3A6969","udp%3A%2F%2Fexodus.desync.com%3A6969"],"infoHash":"823a68e8cca373f3e268cd7f0d421916cc16f7b0","infoHashBuffer":{"type":"Buffer","data":[130,58,104,232,204,163,115,243,226,104,205,127,13,66,25,22,204,22,247,176]},"announce":[],"urlList":[]}}